<?xml version="1.0" encoding="utf-8"?>
<!-- Generator: Adobe Illustrator 20.1.0, SVG Export Plug-In . SVG Version: 6.00 Build 0)  -->
<svg version="1.1" id="Layer_1" xmlns="http://www.w3.org/2000/svg" xmlns:xlink="http://www.w3.org/1999/xlink" x="0px" y="0px"
	 viewBox="0 0 476 610" style="enable-background:new 0 0 476 610;" xml:space="preserve">
<style type="text/css">
	.st0{display:none;fill:#EE275C;}
	.st1{fill:#E62154;}
</style>
<path class="st0" d="M222.6,611c-14.7,0.1-29.4-1.1-43.8-3.6c-85.9-14.3-134-80.6-159.2-133.7C-5.8,420.2-19.9,354.6-20,288.9
	c-0.1-65.2,13.5-125,38.2-168.4c17.7-31.6,49.4-62.7,87-85.5c39.4-23.8,81.2-36.2,117.5-34.9c46.1,1.7,80.9,25.1,100.8,67.6
	c8.1,16.1,8.6,39.6,9.1,62.3c0.6,30.8,1.3,62.7,20.9,76.6c35.4,26.9,81-3.6,117.7-28.2c11.1-7.4,21.6-14.5,30.5-18.9
	c66.1-27.1,121.1-28.1,155-2.8c30.6,22.7,43.7,66.3,37.9,125.9c-11.2,113.3-62.3,150.6-139.6,207c-6,4.4-12.1,8.8-18.4,13.5l0,0
	c-51,35.9-115,66.4-180.2,86C308.1,603.6,262.1,611,222.6,611z M217.6,1.7c-71.5,0-161.1,53.8-197.9,119.7
	c-51.5,90.2-50.9,241.4,1.4,351.7c25,52.8,72.8,118.6,158,132.8c95,16.9,248.3-27.8,356.6-104.1c6.3-4.6,12.4-9.1,18.4-13.5
	c77-56.2,127.9-93.3,139-205.7c5.7-59-7.2-102.1-37.2-124.4c-33.4-24.9-87.9-23.8-153.3,3c-8.8,4.4-19.2,11.4-30.3,18.8
	c-26.8,17.9-58.3,39-87.4,39c-11.7,0.1-23-3.7-32.3-10.8c-20.3-14.4-21-46.7-21.6-77.9c-0.5-22.5-1-45.8-8.9-61.6
	c-19.6-42-54-65-99.4-66.7C221,1.7,219.3,1.7,217.6,1.7z"/>
<g>
	<path class="st1" d="M476,514.6l-71.7,23.1l-11.4-35.9c-4.5-13.9-16.5-46.1-40.3-77.3c-37.8,42.1-85.4,60-113,67.2l-1.8,0.4
		c-70,14.7-132.7-2.2-163.8-44c-16.2-21.8-23.5-44.9-21.7-68.6c3-39.8,30.9-64,40-71.9c25.9-22.6,62.8-34.5,106.6-34.6
		c33.4-0.1,70.7,7,102.2,19.5c9.2,3.6,18,7.8,26.6,12.4c5.4-44.2-10.6-86.5-20-106.6c-19-40.8-52.2-72.9-98.7-95.1
		c-37.4-17.8-70.2-22.8-73.8-23.3l-37.3-5.2L108.3,0l37.3,5.2c17,2.4,167.9,27.1,230.4,161.2c15.5,33.4,43.9,111.1,17,189.3
		c11.2,11.9,21.6,25.1,31.2,39.6c21.5,32.4,33.8,63.2,40.3,83.4L476,514.6z M221.3,418.5c18.9-5.1,50.8-17.2,75.3-44.6
		c-7.3-4.2-15-8-23.2-11.3c-43.8-17.3-105-21.3-131.7,1.9c-4.4,3.9-13.6,11.9-14.3,20.8c-0.6,7.6,4.9,15.1,7,17.9
		C147,420.2,182.6,426.5,221.3,418.5z"/>
</g>
</svg>
