<?xml version="1.0" encoding="utf-8"?>
<!-- Generator: Adobe Illustrator 20.1.0, SVG Export Plug-In . SVG Version: 6.00 Build 0)  -->
<svg version="1.1" id="Layer_1" xmlns="http://www.w3.org/2000/svg" xmlns:xlink="http://www.w3.org/1999/xlink" x="0px" y="0px"
	 viewBox="0 0 430 610" style="enable-background:new 0 0 430 610;" xml:space="preserve">
<style type="text/css">
	.st0{display:none;fill:url(#SVGID_1_);}
	.st1{fill:#E62154;}
</style>
<linearGradient id="SVGID_1_" gradientUnits="userSpaceOnUse" x1="-5.475717e-04" y1="-42.1265" x2="715.9401" y2="-42.1265" gradientTransform="matrix(1 0 0 -1 0 262.93)">
	<stop  offset="0" style="stop-color:#FBCF01"/>
	<stop  offset="1" style="stop-color:#FCB62E"/>
</linearGradient>
<path class="st0" d="M242.6,610c-14.7,0.1-29.4-1.1-43.8-3.6c-86-14.2-134-80.4-159.2-133.4C14.2,419.5,0.1,354,0,288.5
	c-0.1-65.1,13.5-124.8,38.2-168.1c17.7-31.5,49.4-62.6,87-85.3c39.4-23.8,81.2-36.2,117.5-34.9c46.1,1.7,80.9,25,100.8,67.5
	c8.1,16.1,8.6,39.5,9.1,62.2c0.6,30.8,1.3,62.6,20.9,76.5c35.4,26.9,81-3.6,117.7-28.1c11.1-7.4,21.6-14.4,30.5-18.9
	c66.1-27,121.1-28,155-2.8c30.6,22.7,43.7,66.2,37.9,125.7c-11.2,113-62.3,150.2-139.7,206.6c-6,4.3-12.1,8.8-18.4,13.4l0,0
	c-51,35.8-115,66.3-180.2,85.9C328.1,602.6,282.1,610,242.6,610z M237.6,1.7c-71.6,0-161.1,53.7-198,119.5
	c-51.5,90.1-50.9,241,1.4,351.1c25,52.7,72.8,118.4,158,132.5c95,16.9,248.3-27.8,356.6-103.9c6.3-4.6,12.4-9.1,18.4-13.4
	c77-56.1,127.9-93.2,139-205.4c5.7-58.9-7.2-101.9-37.2-124.2c-33.4-24.8-87.9-23.8-153.3,3c-8.8,4.4-19.2,11.4-30.3,18.8
	c-26.8,17.9-58.3,38.9-87.4,38.9c-11.7,0.1-23-3.7-32.3-10.8c-20.3-14.3-21-46.6-21.6-77.8c-0.5-22.5-1-45.7-8.9-61.5
	c-19.6-41.9-54-64.9-99.4-66.6C241,1.7,239.3,1.7,237.6,1.7z"/>
<g>
	<path class="st1" d="M0,23.1L71.7,0l11.4,35.9c4.5,13.9,16.5,46.1,40.3,77.3c37.8-42.1,85.4-60,113-67.2l1.8-0.4
		c70-14.7,132.7,2.2,163.8,44c16.2,21.8,23.5,44.9,21.7,68.6c-3,39.8-30.9,64-40,71.9c-25.9,22.6-62.8,34.5-106.6,34.6
		c-33.4,0.1-70.7-7-102.2-19.5c-9.2-3.6-18-7.8-26.6-12.4c-5.4,44.2,10.6,86.5,20,106.6c19,40.8,52.2,72.9,98.7,95.1
		c37.4,17.8,70.2,22.8,73.8,23.3l37.3,5.2l-10.4,74.7l-37.3-5.2c-17-2.4-167.9-27.1-230.4-161.2C84.5,337.9,56.1,260.2,83,182
		c-11.2-11.9-21.6-25.1-31.2-39.6C30.3,110,18,79.2,11.5,59L0,23.1z M254.7,119.2c-18.9,5.1-50.8,17.2-75.3,44.6
		c7.3,4.2,15,8,23.2,11.3c43.8,17.3,105,21.3,131.7-1.9c4.4-3.9,13.6-11.9,14.3-20.8c0.6-7.6-4.9-15.1-7-17.9
		C329,117.5,293.4,111.2,254.7,119.2z"/>
</g>
</svg>
